<svg width="24" height="24" viewBox="0 0 24 24" fill="none" xmlns="http://www.w3.org/2000/svg">
<path d="M18.2502 21.354C16.4003 22.5901 14.2256 23.2499 12.0008 23.25C9.01788 23.2468 6.15809 22.0604 4.04885 19.9512C1.9397 17.842 0.753328 14.9824 0.75 11.9996C0.750084 9.77469 1.40988 7.59978 2.64597 5.74984C3.88213 3.89979 5.63914 2.45785 7.69481 1.60636C9.75048 0.754875 12.0125 0.532087 14.1948 0.966171C16.3771 1.40025 18.3816 2.47171 19.955 4.04505C21.5283 5.61839 22.5998 7.62295 23.0338 9.80524C23.4679 11.9875 23.2451 14.2495 22.3936 16.3052C21.5422 18.3609 20.1002 20.1179 18.2502 21.354ZM13.25 4.6292C12.88 4.38197 12.445 4.25001 12 4.25001C11.4033 4.25001 10.831 4.48706 10.409 4.90901C9.98705 5.33097 9.75 5.90327 9.75 6.50001C9.75 6.94501 9.88196 7.38003 10.1292 7.75004C10.3764 8.12005 10.7278 8.40844 11.139 8.57873C11.5501 8.74903 12.0025 8.79359 12.439 8.70677C12.8754 8.61996 13.2763 8.40566 13.591 8.091C13.9057 7.77633 14.12 7.37542 14.2068 6.93896C14.2936 6.5025 14.249 6.0501 14.0787 5.63897C13.9084 5.22783 13.62 4.87643 13.25 4.6292ZM12 9.25001H11C10.5359 9.25001 10.0908 9.43438 9.76256 9.76257C9.43438 10.0908 9.25 10.5359 9.25 11C9.25 11.4641 9.43438 11.9093 9.76256 12.2374C10.0908 12.5656 10.5359 12.75 11 12.75H11.25V18C11.25 18.4641 11.4344 18.9093 11.7626 19.2374C12.0908 19.5656 12.5359 19.75 13 19.75C13.4641 19.75 13.9092 19.5656 14.2374 19.2374C14.5656 18.9093 14.75 18.4641 14.75 18V12C14.75 11.2707 14.4603 10.5712 13.9445 10.0555C13.4288 9.53974 12.7293 9.25001 12 9.25001Z" stroke="black" stroke-width="1.5"/>
</svg>
