<svg width="24" height="24" viewBox="0 0 24 24" fill="none" xmlns="http://www.w3.org/2000/svg">
<g clip-path="url(#clip0_5_16)">
<path d="M17.6738 17.7169L17.692 17.6987L17.7088 17.6793L18.2158 17.0965C18.9342 16.3561 18.9273 15.1727 18.1953 14.4407L18.1607 14.406L18.1218 14.3762L16.8539 13.4024C16.1239 12.7129 14.9788 12.7145 14.2508 13.4074L13.5557 13.9608C12.0002 13.2706 10.8182 12.1277 10.0439 10.4384L10.5926 9.74923C11.2854 9.02125 11.2871 7.8761 10.5976 7.14609L9.62381 5.87816L9.59397 5.83931L9.55933 5.80467C8.82734 5.07268 7.64391 5.06584 6.90349 5.78417L6.32073 6.29117L6.30134 6.30803L6.28315 6.32619C5.57683 7.03123 5.25 7.95458 5.25 8.857C5.25 11.1536 6.77449 13.6217 8.6537 15.4641C10.5307 17.3042 12.9965 18.75 15.143 18.75C16.0454 18.75 16.9688 18.4232 17.6738 17.7169ZM0.75 12C0.75 5.79721 5.79721 0.75 12 0.75C18.2028 0.75 23.25 5.79721 23.25 12C23.25 18.2028 18.2028 23.25 12 23.25C5.79721 23.25 0.75 18.2028 0.75 12Z" stroke="black" stroke-width="1.5"/>
</g>
<defs>
<clipPath id="clip0_5_16">
<rect width="24" height="24" fill="white"/>
</clipPath>
</defs>
</svg>
