<svg width="24" height="24" viewBox="0 0 24 24" fill="none" xmlns="http://www.w3.org/2000/svg">
<path d="M20.5417 19.3378L20.2032 19.8489L20.6367 20.2823L22.9183 22.564L22.565 22.9173L20.2833 20.6357L19.8499 20.2022L19.3388 20.5407C18.6645 20.9875 17.8625 21.249 17 21.249C14.6572 21.249 12.75 19.3418 12.75 16.999C12.75 14.6562 14.6572 12.749 17 12.749C19.3428 12.749 21.25 14.6562 21.25 16.999C21.25 17.8615 20.9885 18.6635 20.5417 19.3378ZM9.25 9.25H0.75V3C0.75 1.76021 1.76021 0.75 3 0.75H9.25V9.25ZM19 0.75C20.2398 0.75 21.25 1.76021 21.25 3V9.25H12.75V0.75H19ZM3 21.25C1.76021 21.25 0.75 20.2398 0.75 19V12.75H9.25V21.25H3Z" stroke="black" stroke-width="1.5"/>
</svg>
