<svg width="24" height="24" viewBox="0 0 24 24" fill="none" xmlns="http://www.w3.org/2000/svg">
<g clip-path="url(#clip0_37_17)">
<path d="M10 9L10.75 9.00135C10.7503 8.81812 10.7909 8.63719 10.869 8.4714C10.947 8.3056 11.0605 8.15898 11.2015 8.04192C11.3424 7.92486 11.5074 7.84023 11.6847 7.79401C11.861 7.74807 12.0451 7.74121 12.2243 7.77388C12.4717 7.82257 12.6991 7.94359 12.8778 8.12165C13.0565 8.29984 13.1783 8.5271 13.2277 8.77458C13.2761 9.03276 13.242 9.29967 13.1301 9.53739C13.0179 9.77593 12.8331 9.97287 12.6022 10.1001L12.5944 10.1043L12.5867 10.1088C11.8611 10.5312 11.2617 11.1401 10.8509 11.8723C10.4413 12.6021 10.2339 13.4279 10.25 14.2645V15C10.25 15.4641 10.4344 15.9093 10.7626 16.2374C11.0908 16.5656 11.5359 16.75 12 16.75C12.4641 16.75 12.9093 16.5656 13.2374 16.2374C13.5656 15.9093 13.75 15.4641 13.75 15V14.257V14.2437L13.7495 14.2303C13.7418 14.0141 13.7912 13.7997 13.8927 13.6087C13.9915 13.4227 14.1362 13.2653 14.3129 13.1513C15.0379 12.7471 15.6439 12.1593 16.0711 11.4485C16.5027 10.7305 16.7368 9.91109 16.7495 9.07341C16.7622 8.23574 16.5531 7.4096 16.1434 6.67881C15.7338 5.94802 15.1381 5.33857 14.4169 4.91229C13.6957 4.48601 12.8746 4.25806 12.0368 4.25156C11.1991 4.24506 10.3745 4.46025 9.64679 4.87529C8.91905 5.29034 8.31403 5.89047 7.8931 6.61482C7.47217 7.33917 7.2503 8.16196 7.25001 8.99974V9C7.25001 9.46413 7.43438 9.90925 7.76257 10.2374C8.09076 10.5656 8.53588 10.75 9.00001 10.75C9.46414 10.75 9.90925 10.5656 10.2374 10.2374C10.5656 9.90925 10.75 9.46413 10.75 9H10ZM10 9C10.0005 8.70683 10.0655 8.41735 10.1903 8.15207C10.3152 7.8868 10.4968 7.65221 10.7223 7.46492C10.9479 7.27762 11.2118 7.14221 11.4955 7.06826C11.7792 6.99431 12.0757 6.98364 12.364 7.037L8.00001 9C8.00001 9.26522 8.10536 9.51957 8.2929 9.70711C8.48044 9.89464 8.73479 10 9.00001 10C9.26522 10 9.51958 9.89464 9.70711 9.70711C9.89465 9.51957 10 9.26522 10 9ZM5.74984 2.64597C7.59978 1.40988 9.77469 0.750084 11.9996 0.75C14.9824 0.753327 17.842 1.9397 19.9512 4.04885C22.0604 6.15809 23.2468 9.0179 23.25 12.0008C23.2498 14.2256 22.5901 16.4003 21.354 18.2502C20.1179 20.1002 18.3609 21.5422 16.3052 22.3936C14.2495 23.2451 11.9875 23.4679 9.80524 23.0338C7.62295 22.5998 5.61839 21.5283 4.04505 19.955C2.47171 18.3816 1.40025 16.3771 0.966171 14.1948C0.532087 12.0125 0.754875 9.75048 1.60636 7.69481C2.45785 5.63914 3.89979 3.88213 5.74984 2.64597ZM11.0278 20.4551C11.3155 20.6474 11.6539 20.75 12 20.75C12.4641 20.75 12.9093 20.5656 13.2374 20.2374C13.5656 19.9093 13.75 19.4641 13.75 19C13.75 18.6539 13.6474 18.3155 13.4551 18.0278C13.2628 17.74 12.9895 17.5157 12.6697 17.3832C12.3499 17.2508 11.9981 17.2161 11.6586 17.2836C11.3191 17.3512 11.0073 17.5178 10.7626 17.7626C10.5178 18.0073 10.3512 18.3191 10.2836 18.6586C10.2161 18.9981 10.2508 19.3499 10.3832 19.6697C10.5157 19.9895 10.74 20.2628 11.0278 20.4551Z" stroke="black" stroke-width="1.5"/>
</g>
<defs>
<clipPath id="clip0_37_17">
<rect width="24" height="24" fill="white"/>
</clipPath>
</defs>
</svg>
