<svg width="24" height="24" viewBox="0 0 24 24" fill="none" xmlns="http://www.w3.org/2000/svg">
<g clip-path="url(#clip0_3_12)">
<path d="M21.25 5.724V6.099L21.55 6.324C22.6179 7.1249 23.25 8.37996 23.25 9.724V19C23.25 21.3428 21.3428 23.25 19 23.25H17C16.8617 23.25 16.75 23.1383 16.75 23V14C16.75 13.0353 15.9667 12.25 15 12.25H9C8.0333 12.25 7.25 13.0353 7.25 14V23C7.25 23.1383 7.1383 23.25 7 23.25H5C2.65721 23.25 0.75 21.3428 0.75 19V9.724C0.75 8.30842 1.45003 6.99233 2.62254 6.20068C2.62258 6.20065 2.62262 6.20062 2.62266 6.2006L9.6224 1.47678C11.0679 0.50174 12.9321 0.50174 14.3776 1.47678L19.5805 4.98769L20.75 5.77689V4.366V2C20.75 1.86172 20.8617 1.75 21 1.75C21.1383 1.75 21.25 1.86172 21.25 2V5.724Z" stroke="black" stroke-width="1.5"/>
</g>
<defs>
<clipPath id="clip0_3_12">
<rect width="24" height="24" fill="white"/>
</clipPath>
</defs>
</svg>
