<svg width="24" height="24" viewBox="0 0 24 24" fill="none" xmlns="http://www.w3.org/2000/svg">
<path d="M20.1646 8.08301L20.2389 8.75H20.91H21C21.6576 8.75 22.2784 9.02934 22.7024 9.52022C23.1286 10.0137 23.3176 10.6659 23.2274 11.3152C23.2273 11.3156 23.2273 11.316 23.2272 11.3164L22.1675 18.7339C21.8004 21.3042 19.5671 23.24 16.97 23.24H7C4.40294 23.24 2.16964 21.3042 1.80246 18.7339L0.742806 11.3164C0.742753 11.316 0.742699 11.3156 0.742646 11.3152C0.652509 10.6669 0.84088 10.0156 1.26578 9.52235C1.69436 9.03487 2.31851 8.75 2.97 8.75H3.03H3.70112L3.77539 8.08301C4.2337 3.96741 7.73744 0.75 11.97 0.75C16.2026 0.75 19.7063 3.96741 20.1646 8.08301ZM18.89 8.75H19.7562L19.6323 7.89271C19.09 4.14127 15.8703 1.25 11.97 1.25C8.06971 1.25 4.84996 4.14127 4.30772 7.89271L4.1838 8.75H5.05H18.89Z" stroke="black" stroke-width="1.5"/>
</svg>
